<?xml version="1.0" encoding="utf-8"?>
<!-- Generator: Adobe Illustrator 17.0.0, SVG Export Plug-In . SVG Version: 6.00 Build 0)  -->
<!DOCTYPE svg PUBLIC "-//W3C//DTD SVG 1.1//EN" "http://www.w3.org/Graphics/SVG/1.1/DTD/svg11.dtd">
<svg version="1.1" xmlns="http://www.w3.org/2000/svg" xmlns:xlink="http://www.w3.org/1999/xlink" x="0px" y="0px" width="530px"
	 height="352px" viewBox="0 0 530 352" style="enable-background:new 0 0 530 352;" xml:space="preserve">
<style type="text/css">
	.st0{display:none;}
	.st1{display:inline;}
	.st2{display:inline;fill:#E6E6E6;}
	.st3{fill:#85ECFD;}
	.st4{fill:#4DC4F3;}
	.st5{fill:#3D92FB;}
	.st6{fill:#377DFF;}
</style>
<g id="Calque_1" class="st0">
</g>
<g id="Calque_2">
	<path class="st3" d="M529.822,165.501c-1.521-22.773-10.384-41.694-27.697-56.628c-18.647-16.084-40.21-22.921-64.669-20.166
		c-19.197,2.162-35.341,10.819-49.052,24.173c-3.566,3.472-6.719,7.368-10.084,11.094c-15.176-19.654-34.405-32.683-59.634-35.348
		c-25.161-2.658-46.971,5.129-65.743,22.009c-1.061-0.902-2.075-1.762-3.087-2.625c-25.743-21.978-61.311-26.581-91.188-10.674
		c-28.354,15.096-44.575,38.582-45.327,71.458c-0.4,17.46-12.041,29.953-29.475,31.091c-11.852,0.774-26.125-7.093-29.435-19.392
		c-1.105-4.106-1.61-8.493-1.623-12.754c-0.117-41.111-0.068-82.223-0.077-123.334c0-2.038,0.053-4.094-0.181-6.111
		c-1.317-11.351-5.892-15.536-15.128-17.274c-7.937-1.494-15.914-1.312-23.837,0.317C6.406,22.813,2.068,27.205,0.922,34.399
		C0.297,38.325,0.05,42.35,0.043,46.331c-0.062,39.385-0.046,78.771-0.024,118.156c0.002,3.68,0.125,7.364,0.31,11.04
		c1.11,22.166,9.863,40.636,26.453,55.495c30.511,27.326,73.674,29.356,106.074,4.794c2.287-1.734,4.456-3.625,6.621-5.394
		c16.261,14.46,34.933,22.522,56.715,22.436c21.742-0.086,40.755-7.483,56.866-22.221c15.866,14.023,34.083,21.987,55.313,22.229
		c21.221,0.242,39.627-6.598,56.627-20.93c0,1.641,0,2.569,0,3.498c0,29.264,0.008,64.355,0.024,93.619
		c0.001,2.036,0.001,4.094,0.27,6.105c0.913,6.826,3.338,12.691,10.742,14.746c9.879,2.741,19.832,2.817,29.721,0.092
		c4.344-1.197,7.471-3.919,9.505-8.122c2.236-4.621,2.698-9.477,2.709-14.419c0.056-23.851,0.029-53.528,0.029-77.378
		c0-0.844,0-1.688,0-2.679c1,0.129,0.788,0.18,1.066,0.284c22.487,8.388,44.487,6.731,65.889-3.596
		C514.075,230.033,531.998,198.06,529.822,165.501z M195.65,199.925c-16.483-0.017-29.063-12.695-29.061-29.288
		c0.003-17.152,12.209-29.395,29.31-29.399c17.536-0.004,29.462,11.752,29.46,29.038C225.358,186.891,212.28,199.942,195.65,199.925
		z M309.174,199.926c-16.36,0.107-29.127-12.647-29.197-29.168c-0.072-16.896,12.17-29.471,28.736-29.518
		c17.899-0.051,29.99,11.47,30.108,28.686C338.935,186.62,325.895,199.816,309.174,199.926z M446.795,199.926
		c-16.533-0.093-29.083-12.775-29.033-29.339c0.053-17.445,12.312-29.403,30.088-29.348c16.808,0.053,28.849,12.241,28.741,29.094
		C476.484,186.943,463.319,200.019,446.795,199.926z"/>
	<path class="st6" d="M529.822,145.501c-1.521-22.773-10.384-41.694-27.697-56.628c-18.647-16.084-40.21-22.921-64.669-20.166
		c-19.197,2.162-35.341,10.819-49.052,24.173c-3.566,3.472-6.719,7.368-10.084,11.094c-15.176-19.654-34.405-32.683-59.634-35.348
		c-25.161-2.658-46.971,5.129-65.743,22.009c-1.061-0.902-2.075-1.762-3.087-2.625c-25.743-21.978-61.311-26.581-91.188-10.674
		c-28.354,15.096-44.575,38.582-45.327,71.458c-0.4,17.46-12.041,29.953-29.475,31.091c-11.852,0.774-26.125-7.093-29.435-19.392
		c-1.105-4.106-1.61-8.493-1.623-12.754c-0.117-41.111-0.068-82.223-0.077-123.334c0-2.038,0.053-4.094-0.181-6.111
		C51.232,6.942,46.657,2.758,37.421,1.02c-7.937-1.494-15.914-1.312-23.837,0.317C6.406,2.813,2.068,7.205,0.922,14.399
		C0.297,18.325,0.05,22.35,0.043,26.331c-0.062,39.385-0.046,78.771-0.024,118.156c0.002,3.68,0.125,7.364,0.31,11.04
		c1.11,22.166,9.863,40.636,26.453,55.495c30.511,27.326,73.674,29.356,106.074,4.794c2.287-1.734,4.456-3.625,6.621-5.394
		c16.261,14.46,34.933,22.522,56.715,22.436c21.742-0.086,40.755-7.483,56.866-22.221c15.866,14.023,34.083,21.987,55.313,22.229
		c21.221,0.242,39.627-6.598,56.627-20.93c0,1.641,0,2.569,0,3.498c0,29.264,0.008,64.355,0.024,93.619
		c0.001,2.036,0.001,4.094,0.27,6.105c0.913,6.826,3.338,12.691,10.742,14.746c9.879,2.741,19.832,2.817,29.721,0.092
		c4.344-1.197,7.471-3.919,9.505-8.122c2.236-4.621,2.698-9.477,2.709-14.419c0.056-23.851,0.029-53.528,0.029-77.378
		c0-0.844,0-1.688,0-2.679c1,0.129,0.788,0.18,1.066,0.284c22.487,8.388,44.487,6.731,65.889-3.596
		C514.075,210.033,531.998,178.06,529.822,145.501z M195.65,179.925c-16.483-0.017-29.063-12.695-29.061-29.288
		c0.003-17.152,12.209-29.395,29.31-29.399c17.536-0.004,29.462,11.752,29.46,29.038C225.358,166.891,212.28,179.942,195.65,179.925
		z M309.174,179.926c-16.36,0.107-29.127-12.647-29.197-29.168c-0.072-16.896,12.17-29.471,28.736-29.518
		c17.899-0.051,29.99,11.47,30.108,28.686C338.935,166.62,325.895,179.816,309.174,179.926z M446.795,179.926
		c-16.533-0.093-29.083-12.775-29.033-29.339c0.053-17.445,12.312-29.403,30.088-29.348c16.808,0.053,28.849,12.241,28.741,29.094
		C476.484,166.943,463.319,180.019,446.795,179.926z"/>
</g>
</svg>
